<?xml version="1.0" encoding="UTF-8" standalone="no"?>
<svg
   xmlns:dc="http://purl.org/dc/elements/1.1/"
   xmlns:cc="http://creativecommons.org/ns#"
   xmlns:rdf="http://www.w3.org/1999/02/22-rdf-syntax-ns#"
   xmlns:svg="http://www.w3.org/2000/svg"
   xmlns="http://www.w3.org/2000/svg"
   xmlns:sodipodi="http://sodipodi.sourceforge.net/DTD/sodipodi-0.dtd"
   xmlns:inkscape="http://www.inkscape.org/namespaces/inkscape"
   width="21.5"
   height="21.5"
   viewBox="0 0 5.6885453 5.6885419"
   version="1.1"
   id="svg4589"
   inkscape:version="1.0 (6e3e5246a0, 2020-05-07)"
   sodipodi:docname="cofee_bean_empty.svg">
  <defs
     id="defs4583" />
  <sodipodi:namedview
     id="base"
     pagecolor="#ffffff"
     bordercolor="#666666"
     borderopacity="1.0"
     inkscape:pageopacity="0.0"
     inkscape:pageshadow="2"
     inkscape:zoom="31.678384"
     inkscape:cx="10.837855"
     inkscape:cy="11.857773"
     inkscape:document-units="mm"
     inkscape:current-layer="layer1"
     inkscape:document-rotation="0"
     showgrid="false"
     inkscape:window-width="1428"
     inkscape:window-height="1044"
     inkscape:window-x="50"
     inkscape:window-y="0"
     inkscape:window-maximized="0"
     units="px" />
  <metadata
     id="metadata4586">
    <rdf:RDF>
      <cc:Work
         rdf:about="">
        <dc:format>image/svg+xml</dc:format>
        <dc:type
           rdf:resource="http://purl.org/dc/dcmitype/StillImage" />
        <dc:title></dc:title>
      </cc:Work>
    </rdf:RDF>
  </metadata>
  <g
     inkscape:label="Layer 1"
     inkscape:groupmode="layer"
     id="layer1">
    <path
       id="path2848-90"
       style="fill:none;fill-opacity:1;stroke:#f2f3f7;stroke-width:0.499999;stroke-linecap:round;stroke-linejoin:round;stroke-miterlimit:4;stroke-dasharray:none;stroke-opacity:1"
       d="M 3.6940873,0.33781997 A 2.0224056,2.8977153 45 0 0 1.4110172,1.40651 2.0224056,2.8977153 45 0 0 0.48550727,4.4306 C 0.9569173,4.3343 1.2662772,4.16267 1.5102373,3.9494999 c 0.3281599,-0.28674 0.5506299,-0.68009 0.78551,-1.1425499 0.23487,-0.4625 0.47999,-0.98953 0.9120599,-1.45522 0.3191701,-0.344 0.74398,-0.64018003 1.3012201,-0.83663004 A 2.0224056,2.8977153 45 0 0 3.6940873,0.33781997 Z M 5.2149372,1.28559 c -0.65428,0.13604 -1.0304698,0.38439 -1.3239499,0.70072 -0.3089,0.33292 -0.52139,0.76603 -0.76327,1.2422901 -0.2418699,0.4762899 -0.51586,0.99891 -1.00201,1.4237099 -0.2457,0.21468 -0.54374,0.3954301 -0.9007201,0.5301901 a 2.0224056,2.8977153 45 0 0 3.04634,-0.9157301 2.0224056,2.8977153 45 0 0 0.94361,-2.98118 z" />
  </g>
</svg>
