<?xml version="1.0" encoding="UTF-8" standalone="no"?>
<svg
   xmlns:dc="http://purl.org/dc/elements/1.1/"
   xmlns:cc="http://creativecommons.org/ns#"
   xmlns:rdf="http://www.w3.org/1999/02/22-rdf-syntax-ns#"
   xmlns:svg="http://www.w3.org/2000/svg"
   xmlns="http://www.w3.org/2000/svg"
   xmlns:sodipodi="http://sodipodi.sourceforge.net/DTD/sodipodi-0.dtd"
   xmlns:inkscape="http://www.inkscape.org/namespaces/inkscape"
   sodipodi:docname="cofee_bean_full.svg"
   inkscape:version="1.0 (6e3e5246a0, 2020-05-07)"
   id="svg4589"
   version="1.1"
   viewBox="0 0 5.6885453 5.6885419"
   height="21.5"
   width="21.5">
  <defs
     id="defs4583" />
  <sodipodi:namedview
     units="px"
     inkscape:window-maximized="0"
     inkscape:window-y="0"
     inkscape:window-x="50"
     inkscape:window-height="1044"
     inkscape:window-width="1428"
     showgrid="false"
     inkscape:document-rotation="0"
     inkscape:current-layer="layer1"
     inkscape:document-units="mm"
     inkscape:cy="14.029882"
     inkscape:cx="9.9035052"
     inkscape:zoom="31.678384"
     inkscape:pageshadow="2"
     inkscape:pageopacity="0.0"
     borderopacity="1.0"
     bordercolor="#666666"
     pagecolor="#ffffff"
     id="base" />
  <metadata
     id="metadata4586">
    <rdf:RDF>
      <cc:Work
         rdf:about="">
        <dc:format>image/svg+xml</dc:format>
        <dc:type
           rdf:resource="http://purl.org/dc/dcmitype/StillImage" />
        <dc:title></dc:title>
      </cc:Work>
    </rdf:RDF>
  </metadata>
  <g
     id="layer1"
     inkscape:groupmode="layer"
     inkscape:label="Layer 1">
    <path
       id="ellipse2780-22"
       style="fill:#f2f3f7;fill-opacity:1;stroke:#f2f3f7;stroke-width:0.499999;stroke-linecap:round;stroke-linejoin:round;stroke-miterlimit:4;stroke-dasharray:none;stroke-opacity:1"
       d="M 3.6940873,0.33781997 A 2.0224056,2.8977153 45 0 0 1.4110173,1.40651 2.0224056,2.8977153 45 0 0 0.48550728,4.430605 c 0.47141,-0.0963 0.78076002,-0.26793 1.02473002,-0.4811 0.32816,-0.28674 0.55063,-0.68009 0.7855,-1.14255 0.23487,-0.4625 0.48,-0.98953 0.91208,-1.455225 0.31915,-0.344 0.74397,-0.64018003 1.30121,-0.83663003 a 2.0224056,2.8977153 45 0 0 -0.81494,-0.17728 z M 5.2149373,1.28559 c -0.65429,0.13604 -1.03048,0.384395 -1.32395,0.700725 -0.30889,0.33292 -0.52139,0.76603 -0.76327,1.24229 -0.24188,0.47629 -0.51585,0.99891 -1.00201,1.42371 -0.24571,0.21468 -0.54374,0.39543 -0.90072,0.53019 a 2.0224056,2.8977153 45 0 0 3.04634,-0.91573 2.0224056,2.8977153 45 0 0 0.94361,-2.981185 z" />
  </g>
</svg>
